# xmcd
#
# Track frame offsets: 
#        150
#        16517
#        33157
#        50652
#        66965
#        81717
#        101302
#        112995
#        129170
#        144417
#        163712
#        181515
#
# Disc length: 2603 seconds
#
# Revision: 0
# Processed by: cddbd v1.5.2PL0 Copyright (c) Steve Scherf et al.
# Submitted via: ExactAudioCopyFreeDBPlugin 1.0
#
DISCID=8e0a290c
DTITLE=Various Artist - The Best Of Country Sing The Best Of Disney
DYEAR=1900
DGENRE=Country
TTITLE0=Little Texas - Kiss The Girl
TTITLE1=Diamond Rio - Beauty And The Beast
TTITLE2=Tanya Tucker - Some Day My Prince Will Come
TTITLE3=Alison Krauss - Baby Mine
TTITLE4=Collin Raye - A Whole New World
TTITLE5=Pam Tillis - Colors Of The Wind
TTITLE6=George Jones and Kathy Mattea - You've Got A Friend In Me
TTITLE7=Larry Stewart - Can You Feel The Love Tonight
TTITLE8=Faith Hill - Part Of Your World
TTITLE9=Hal Ketchum and Shelby Lynne - If I Never Knew You
TTITLE10=Lee Roy Parnell - Someday
TTITLE11=Bryan White - When You Wish Upon A Star
EXTD=
EXTT0=
EXTT1=
EXTT2=
EXTT3=
EXTT4=
EXTT5=
EXTT6=
EXTT7=
EXTT8=
EXTT9=
EXTT10=
EXTT11=
PLAYORDER=
